<svg width="481" height="461" viewBox="0 0 481 461" fill="none" xmlns="http://www.w3.org/2000/svg">
<g id="Product">
<g id="Circle">
<path id="Vector" d="M240.899 451.379C238.744 451.363 236.564 451.348 234.423 451.281L234.49 449.123C236.608 449.188 238.775 449.218 240.899 449.22C243.033 449.22 245.208 449.185 247.365 449.115L247.434 451.273C245.254 451.344 243.055 451.379 240.899 451.379ZM221.441 450.467C217.142 450.06 212.8 449.509 208.536 448.829L208.877 446.696C213.095 447.369 217.391 447.915 221.645 448.318L221.441 450.467ZM260.415 450.444L260.21 448.295C264.462 447.888 268.757 447.336 272.976 446.657L273.319 448.789C269.055 449.476 264.714 450.033 260.415 450.444H260.415ZM195.762 446.364C191.552 445.41 187.316 444.304 183.173 443.08L183.785 441.009C187.884 442.221 192.075 443.313 196.239 444.257L195.762 446.364ZM286.09 446.31L285.61 444.205C289.785 443.253 293.974 442.155 298.061 440.942L298.675 443.013C294.544 444.239 290.31 445.348 286.09 446.31H286.09ZM170.821 438.993C166.759 437.501 162.694 435.858 158.741 434.108L159.615 432.134C163.526 433.863 167.546 435.49 171.565 436.966L170.821 438.993ZM311.022 438.908L310.275 436.881C314.269 435.41 318.276 433.785 322.183 432.052L323.06 434.026C319.109 435.778 315.059 437.421 311.021 438.908H311.022ZM147.005 428.456C143.183 426.461 139.365 424.309 135.66 422.063L136.78 420.216C140.446 422.44 144.222 424.567 148.005 426.541L147.005 428.456ZM334.763 428.377L333.763 426.463C337.536 424.49 341.304 422.363 344.96 420.141L346.082 421.986C342.386 424.232 338.578 426.381 334.762 428.377H334.763ZM124.751 414.958C121.21 412.487 117.701 409.866 114.32 407.171L115.667 405.481C119.012 408.149 122.484 410.741 125.987 413.186L124.751 414.958ZM356.973 414.881L355.735 413.111C359.237 410.663 362.705 408.071 366.041 405.407L367.389 407.094C364.017 409.787 360.512 412.407 356.973 414.881V414.881ZM104.409 398.733C101.208 395.828 98.0617 392.784 95.0578 389.686L96.608 388.183C99.5802 391.247 102.694 394.259 105.861 397.135L104.409 398.733ZM377.29 398.658L375.837 397.06C378.996 394.19 382.107 391.176 385.084 388.105L386.635 389.606C383.627 392.712 380.482 395.757 377.29 398.658V398.658ZM86.303 380.065C83.5005 376.779 80.7682 373.361 78.1809 369.906L79.9098 368.611C82.4697 372.03 85.173 375.412 87.946 378.662L86.303 380.065ZM395.387 379.975L393.744 378.575C396.517 375.321 399.221 371.935 401.78 368.512L403.509 369.805C400.923 373.265 398.19 376.687 395.387 379.975V379.975ZM70.7247 359.251C68.362 355.633 66.0884 351.897 63.9667 348.146L65.8469 347.083C67.9455 350.794 70.1953 354.491 72.5333 358.07L70.7247 359.251ZM410.968 359.134L409.159 357.955C411.498 354.369 413.747 350.665 415.846 346.946L417.728 348.007C415.606 351.767 413.331 355.511 410.968 359.134V359.134ZM57.9357 336.632C56.0565 332.745 54.2812 328.75 52.6593 324.758L54.6598 323.946C56.2648 327.894 58.0211 331.847 59.8803 335.692L57.9357 336.632ZM423.761 336.463L421.816 335.525C423.674 331.674 425.431 327.711 427.038 323.743L429.04 324.553C427.416 328.564 425.64 332.571 423.761 336.463V336.463ZM48.1511 312.554C46.7849 308.452 45.5369 304.255 44.4412 300.082L46.5303 299.533C47.6138 303.662 48.8487 307.814 50.2001 311.87L48.1511 312.554ZM433.54 312.325L431.49 311.646C432.833 307.593 434.064 303.44 435.145 299.303L437.235 299.85C436.141 304.032 434.898 308.229 433.54 312.325V312.325ZM41.5438 287.4C40.7187 283.162 40.0205 278.842 39.4685 274.557L41.6103 274.281C42.1565 278.52 42.8473 282.794 43.6635 286.986L41.5438 287.4ZM440.117 287.162L437.997 286.753C438.807 282.562 439.494 278.286 440.035 274.044L442.177 274.318C441.63 278.606 440.936 282.927 440.117 287.162V287.162ZM38.2199 261.61C37.9431 257.305 37.8002 252.93 37.7955 248.605L39.9552 248.603C39.9599 252.882 40.1012 257.211 40.3754 261.47L38.2199 261.61ZM443.411 261.368L441.256 261.231C441.525 256.976 441.661 252.647 441.661 248.367L441.66 247.893H443.819L443.82 248.359C443.82 252.692 443.682 257.067 443.411 261.368ZM40.3453 235.737L38.1899 235.605C38.4577 231.292 38.8674 226.934 39.4079 222.653L41.5507 222.923C41.0155 227.16 40.61 231.471 40.3453 235.737ZM441.226 235.029C440.946 230.76 440.525 226.45 439.976 222.219L442.116 221.941C442.672 226.217 443.098 230.572 443.382 234.887L441.226 235.029ZM43.5733 210.213L41.4527 209.805C42.2673 205.566 43.2323 201.297 44.3194 197.116L46.4095 197.659C45.3339 201.796 44.3795 206.019 43.5733 210.213ZM437.905 209.517C437.083 205.321 436.113 201.1 435.024 196.972L437.112 196.422C438.213 200.594 439.193 204.86 440.025 209.101L437.905 209.517ZM50.0509 185.313L47.9998 184.636C49.3554 180.532 50.8644 176.416 52.4858 172.401L54.4884 173.21C52.8844 177.182 51.3917 181.254 50.0509 185.313ZM431.342 184.64C429.986 180.586 428.481 176.526 426.869 172.571L428.868 171.755C430.498 175.753 432.02 179.858 433.39 183.954L431.342 184.64ZM59.6978 161.42L57.7512 160.483C59.6246 156.589 61.6503 152.703 63.7716 148.934L65.6539 149.994C63.5548 153.722 61.5512 157.567 59.6978 161.42ZM421.635 160.831C419.775 156.996 417.764 153.166 415.655 149.447L417.534 148.382C419.665 152.14 421.698 156.012 423.577 159.889L421.635 160.831ZM72.3292 138.975L70.5185 137.798C72.8739 134.177 75.379 130.584 77.9636 127.118L79.6952 128.409C77.1379 131.838 74.6592 135.393 72.3292 138.975ZM408.955 138.467C406.618 134.898 404.133 131.354 401.566 127.934L403.293 126.638C405.887 130.095 408.4 133.677 410.763 137.284L408.955 138.467ZM87.7192 118.337L86.0742 116.939C88.8713 113.648 91.8119 110.405 94.8142 107.298L96.3676 108.799C93.3969 111.873 90.4874 115.082 87.7192 118.337ZM393.518 117.892C390.741 114.646 387.822 111.446 384.844 108.381L386.392 106.877C389.403 109.973 392.352 113.208 395.158 116.489L393.518 117.892ZM105.604 99.8318L104.15 98.2352C107.345 95.3241 110.674 92.4816 114.041 89.7872L115.391 91.4734C112.059 94.1393 108.766 96.9518 105.604 99.8318V99.8318ZM375.58 99.44C372.413 96.5732 369.111 93.7692 365.764 91.1065L367.11 89.416C370.492 92.1078 373.829 94.9413 377.029 97.8392L375.58 99.44ZM125.688 83.7568L124.449 81.9883C127.982 79.5117 131.644 77.1174 135.331 74.8712L136.455 76.7156C132.807 78.9381 129.184 81.3071 125.688 83.7568ZM355.436 83.413C351.92 80.9659 348.286 78.6048 344.634 76.395L345.752 74.5475C349.443 76.7805 353.117 79.1669 356.67 81.6403L355.436 83.413ZM147.645 70.3799L146.643 68.4669C150.461 66.4644 154.396 64.5588 158.338 62.8035L159.217 64.7766C155.316 66.5129 151.423 68.3984 147.645 70.3799ZM333.402 70.0836C329.609 68.1094 325.701 66.2329 321.785 64.5055L322.657 62.5293C326.615 64.2751 330.566 66.1722 334.4 68.1674L333.402 70.0836ZM171.12 59.932L170.37 57.9062C174.42 56.4082 178.572 55.0225 182.712 53.7881L183.329 55.8582C179.233 57.0788 175.126 58.4498 171.12 59.932H171.12ZM309.829 59.6868C305.815 58.2183 301.702 56.8622 297.606 55.6568L298.215 53.5846C302.356 54.8031 306.514 56.1741 310.572 57.6589L309.829 59.6868ZM195.775 52.5813L195.293 50.4764C199.495 49.5136 203.791 48.6747 208.061 47.9813L208.407 50.1136C204.182 50.7991 199.932 51.629 195.775 52.5813ZM285.147 52.4241C280.983 51.4856 276.73 50.6704 272.506 50.0008L272.845 47.8674C277.114 48.5444 281.412 49.3686 285.622 50.3171L285.147 52.4241ZM221.172 48.4606L220.963 46.3115C225.25 45.8954 229.618 45.6112 233.943 45.4673L234.015 47.6259C229.735 47.7683 225.414 48.0493 221.172 48.4606V48.4606ZM259.736 48.3937C255.487 47.9966 251.165 47.7309 246.89 47.6038L246.955 45.4452C251.275 45.5738 255.643 45.8422 259.937 46.2435L259.736 48.3937Z" fill="#D0CDE1"/>
</g>
<g id="Item5">
<path id="Vector_2" d="M233.249 101.506C261.279 101.506 284.002 78.7834 284.002 50.7532C284.002 22.723 261.279 0 233.249 0C205.218 0 182.495 22.723 182.495 50.7532C182.495 78.7834 205.218 101.506 233.249 101.506Z" fill="#D17046"/>
<path id="Vector_3" d="M254.998 46.7068H237.295C235.685 46.7068 234.142 46.0673 233.003 44.9291C231.865 43.7908 231.226 42.247 231.226 40.6372V22.9343C231.226 22.8678 231.212 22.8021 231.187 22.7407C231.162 22.6793 231.124 22.6236 231.077 22.5766C231.03 22.5296 230.975 22.4924 230.913 22.467C230.852 22.4415 230.786 22.4285 230.72 22.4285H219.086C216.94 22.4285 214.882 23.2811 213.364 24.7988C211.846 26.3165 210.994 28.3749 210.994 30.5212V70.9851C210.994 73.1314 211.846 75.1899 213.364 76.7076C214.882 78.2252 216.94 79.0779 219.086 79.0779H247.411C249.557 79.0779 251.616 78.2252 253.134 76.7076C254.651 75.1899 255.504 73.1314 255.504 70.9851V47.2126C255.504 47.1462 255.491 47.0804 255.465 47.019C255.44 46.9576 255.403 46.9019 255.356 46.8549C255.309 46.808 255.253 46.7707 255.192 46.7453C255.13 46.7199 255.064 46.7068 254.998 46.7068V46.7068ZM243.365 66.9387H223.133C222.596 66.9387 222.082 66.7256 221.702 66.3461C221.323 65.9667 221.11 65.4521 221.11 64.9155C221.11 64.3789 221.323 63.8643 221.702 63.4849C222.082 63.1055 222.596 62.8923 223.133 62.8923H243.365C243.901 62.8923 244.416 63.1055 244.795 63.4849C245.175 63.8643 245.388 64.3789 245.388 64.9155C245.388 65.4521 245.175 65.9667 244.795 66.3461C244.416 66.7256 243.901 66.9387 243.365 66.9387ZM243.365 56.8227H223.133C222.596 56.8227 222.082 56.6096 221.702 56.2302C221.323 55.8507 221.11 55.3361 221.11 54.7996C221.11 54.263 221.323 53.7484 221.702 53.3689C222.082 52.9895 222.596 52.7764 223.133 52.7764H243.365C243.901 52.7764 244.416 52.9895 244.795 53.3689C245.175 53.7484 245.388 54.263 245.388 54.7996C245.388 55.3361 245.175 55.8507 244.795 56.2302C244.416 56.6096 243.901 56.8227 243.365 56.8227Z" fill="white"/>
<path id="Vector_4" d="M253.888 42.2292L235.703 24.0445C235.668 24.0093 235.623 23.9854 235.574 23.9757C235.525 23.966 235.474 23.9711 235.428 23.9901C235.382 24.0092 235.343 24.0414 235.315 24.0828C235.287 24.1242 235.272 24.1729 235.272 24.2228V40.6372C235.272 41.1738 235.485 41.6884 235.864 42.0678C236.244 42.4472 236.758 42.6604 237.295 42.6604H253.709C253.759 42.6602 253.808 42.6452 253.849 42.6174C253.891 42.5896 253.923 42.5502 253.942 42.5041C253.961 42.458 253.966 42.4073 253.956 42.3584C253.947 42.3095 253.923 42.2645 253.888 42.2292L253.888 42.2292Z" fill="white"/>
</g>
<g id="Item4">
<path id="Vector_5" d="M368.231 451.379C396.261 451.379 418.984 428.656 418.984 400.626C418.984 372.596 396.261 349.873 368.231 349.873C340.2 349.873 317.477 372.596 317.477 400.626C317.477 428.656 340.2 451.379 368.231 451.379Z" fill="#D17046"/>
<path id="Vector_6" d="M375.571 390.628C374.949 390.629 374.346 390.845 373.865 391.24C373.385 391.635 373.056 392.184 372.935 392.795C372.813 393.405 372.908 394.038 373.201 394.587C373.495 395.136 373.97 395.566 374.545 395.803C375.12 396.041 375.759 396.072 376.355 395.891C376.95 395.711 377.464 395.329 377.81 394.811C378.155 394.294 378.311 393.672 378.249 393.053C378.188 392.434 377.914 391.855 377.474 391.415C377.224 391.166 376.927 390.968 376.601 390.832C376.275 390.697 375.925 390.628 375.571 390.628Z" fill="white"/>
<path id="Vector_7" d="M390.546 379.872V379.863C390.46 379.49 390.273 379.147 390.003 378.875C389.734 378.603 389.393 378.411 389.021 378.321C386.018 377.589 381.293 378.37 376.058 380.466C371.024 382.423 366.417 385.34 362.496 389.054C361.425 390.119 360.43 391.259 359.518 392.463C357.504 392.324 355.484 392.649 353.615 393.412C347.796 395.972 346.135 402.526 345.692 405.216C345.628 405.599 345.653 405.991 345.766 406.362C345.878 406.733 346.074 407.073 346.339 407.356C346.604 407.638 346.931 407.856 347.294 407.992C347.657 408.128 348.047 408.178 348.432 408.139H348.445L354.927 407.431C354.935 407.514 354.945 407.59 354.952 407.659C355.035 408.449 355.387 409.186 355.949 409.747L359.113 412.913C359.673 413.476 360.41 413.828 361.2 413.911L361.416 413.935L360.711 420.408V420.421C360.677 420.751 360.708 421.083 360.803 421.4C360.897 421.717 361.053 422.013 361.262 422.269C361.47 422.526 361.728 422.739 362.019 422.897C362.31 423.054 362.629 423.153 362.958 423.187C363.035 423.195 363.113 423.199 363.191 423.2C363.331 423.2 363.471 423.189 363.609 423.166C366.315 422.73 372.866 421.089 375.419 415.239C376.176 413.376 376.502 411.366 376.372 409.359C377.582 408.45 378.725 407.454 379.793 406.381C383.505 402.497 386.425 397.927 388.39 392.926C390.475 387.75 391.26 382.99 390.546 379.872ZM379.757 397.496C378.929 398.325 377.874 398.889 376.725 399.118C375.576 399.348 374.385 399.231 373.303 398.783C372.22 398.335 371.295 397.577 370.644 396.603C369.992 395.63 369.645 394.485 369.644 393.313C369.643 392.142 369.99 390.997 370.64 390.022C371.291 389.048 372.215 388.289 373.297 387.84C374.379 387.391 375.57 387.273 376.719 387.501C377.868 387.729 378.924 388.292 379.752 389.12L379.757 389.125C380.867 390.218 381.497 391.708 381.509 393.266C381.521 394.824 380.913 396.323 379.819 397.433L379.757 397.496Z" fill="white"/>
<path id="Vector_8" d="M358.75 413.771C358.36 413.723 357.966 413.819 357.641 414.04C356.997 414.481 356.35 414.916 355.697 415.34C355.414 415.523 355.077 415.605 354.742 415.573C354.406 415.541 354.091 415.397 353.847 415.165C353.603 414.932 353.444 414.624 353.396 414.291C353.347 413.957 353.413 413.617 353.581 413.325L354.806 411.209C354.981 410.952 355.078 410.651 355.086 410.341C355.094 410.031 355.013 409.725 354.852 409.46C354.691 409.195 354.456 408.983 354.177 408.847C353.898 408.712 353.586 408.66 353.278 408.698C351.919 408.87 350.656 409.489 349.687 410.458C349.318 410.828 348.197 411.95 347.593 416.228C347.421 417.457 347.313 418.694 347.269 419.934C347.263 420.145 347.299 420.356 347.375 420.554C347.451 420.751 347.566 420.932 347.711 421.086C347.857 421.239 348.032 421.362 348.225 421.448C348.419 421.534 348.627 421.581 348.839 421.587C348.853 421.587 348.867 421.587 348.881 421.587H348.921C350.162 421.544 351.4 421.436 352.63 421.265C356.91 420.66 358.032 419.538 358.401 419.169C359.374 418.2 359.992 416.931 360.154 415.567C360.206 415.143 360.087 414.715 359.824 414.379C359.56 414.042 359.174 413.823 358.75 413.771V413.771Z" fill="white"/>
</g>
<g id="Item3">
<path id="Vector_9" d="M124.183 460.018C152.214 460.018 174.937 437.295 174.937 409.265C174.937 381.235 152.214 358.512 124.183 358.512C96.1531 358.512 73.4301 381.235 73.4301 409.265C73.4301 437.295 96.1531 460.018 124.183 460.018Z" fill="#D17046"/>
<path id="Vector_10" d="M106.716 436.844H103.039C102.308 436.844 101.606 436.554 101.089 436.037C100.572 435.519 100.281 434.818 100.281 434.086V417.539C100.281 416.807 100.572 416.106 101.089 415.589C101.606 415.071 102.308 414.781 103.039 414.781H106.716C107.448 414.781 108.149 415.071 108.667 415.589C109.184 416.106 109.474 416.807 109.474 417.539V434.086C109.474 434.818 109.184 435.519 108.667 436.037C108.149 436.554 107.448 436.844 106.716 436.844V436.844Z" fill="white"/>
<path id="Vector_11" d="M132.457 436.844H128.78C128.048 436.844 127.347 436.554 126.83 436.037C126.312 435.519 126.022 434.818 126.022 434.086V406.507C126.022 405.776 126.312 405.074 126.83 404.557C127.347 404.04 128.048 403.749 128.78 403.749H132.457C133.189 403.749 133.89 404.04 134.407 404.557C134.925 405.074 135.215 405.776 135.215 406.507V434.086C135.215 434.818 134.925 435.519 134.407 436.037C133.89 436.554 133.189 436.844 132.457 436.844V436.844Z" fill="white"/>
<path id="Vector_12" d="M145.327 436.844H141.65C140.919 436.844 140.217 436.554 139.7 436.037C139.183 435.519 138.892 434.818 138.892 434.086V393.637C138.892 392.905 139.183 392.204 139.7 391.687C140.217 391.169 140.919 390.879 141.65 390.879H145.327C146.059 390.879 146.76 391.169 147.278 391.687C147.795 392.204 148.085 392.905 148.085 393.637V434.086C148.085 434.818 147.795 435.519 147.278 436.037C146.76 436.554 146.059 436.844 145.327 436.844V436.844Z" fill="white"/>
<path id="Vector_13" d="M119.587 436.844H115.91C115.178 436.844 114.477 436.554 113.959 436.037C113.442 435.519 113.152 434.818 113.152 434.086V384.444C113.152 383.712 113.442 383.011 113.959 382.494C114.477 381.976 115.178 381.686 115.91 381.686H119.587C120.318 381.686 121.02 381.976 121.537 382.494C122.054 383.011 122.345 383.712 122.345 384.444V434.086C122.345 434.449 122.273 434.807 122.135 435.142C121.996 435.477 121.793 435.781 121.537 436.037C121.281 436.293 120.977 436.496 120.642 436.634C120.308 436.773 119.949 436.844 119.587 436.844V436.844Z" fill="white"/>
</g>
<g id="Item2">
<path id="Vector_14" d="M429.782 239.728C457.812 239.728 480.535 217.005 480.535 188.975C480.535 160.944 457.812 138.221 429.782 138.221C401.752 138.221 379.029 160.944 379.029 188.975C379.029 217.005 401.752 239.728 429.782 239.728Z" fill="#D17046"/>
<path id="Vector_15" d="M432.214 187.645L429.586 185.017C428.985 184.415 428.169 184.076 427.318 184.074C426.467 184.072 425.649 184.406 425.044 185.005L406.779 201.862C406.108 202.456 405.698 203.289 405.637 204.182C405.617 204.626 405.69 205.069 405.849 205.483C406.009 205.898 406.252 206.275 406.564 206.591L410.488 210.559L410.495 210.566C411.101 211.17 411.922 211.511 412.778 211.513H412.897C413.34 211.489 413.774 211.376 414.174 211.184C414.574 210.991 414.932 210.721 415.228 210.39L432.203 192.208C432.809 191.606 433.152 190.789 433.155 189.935C433.159 189.081 432.823 188.26 432.222 187.654L432.214 187.645Z" fill="white"/>
<path id="Vector_16" d="M453.328 182.334L453.297 182.303L449.848 178.89C449.646 178.688 449.406 178.529 449.143 178.421C448.879 178.313 448.596 178.258 448.311 178.26C447.849 178.26 447.399 178.406 447.024 178.676C447.024 178.633 447.03 178.591 447.033 178.553C447.172 177.672 446.986 176.77 446.51 176.016C445.75 174.992 444.916 174.025 444.014 173.124L444.006 173.116C441.486 170.697 438.523 168.786 435.281 167.487C433.586 166.792 431.771 166.434 429.94 166.436C427.568 166.414 425.264 167.221 423.424 168.718C422.901 169.218 422.423 169.764 421.998 170.35C421.794 170.631 421.687 170.969 421.692 171.316C421.696 171.663 421.813 171.998 422.023 172.274C422.234 172.549 422.528 172.748 422.862 172.843C423.195 172.938 423.55 172.922 423.874 172.799C424.156 172.693 424.445 172.605 424.738 172.534C425.347 172.405 425.973 172.366 426.594 172.419C427.882 172.553 429.116 173.006 430.185 173.736C430.785 174.241 431.262 174.875 431.58 175.591C431.898 176.308 432.049 177.087 432.022 177.87C431.576 179.143 430.893 180.32 430.01 181.34C429.775 181.65 429.66 182.035 429.687 182.423C429.713 182.812 429.88 183.178 430.156 183.453L433.618 186.915C433.909 187.207 434.301 187.376 434.713 187.387C435.124 187.399 435.525 187.252 435.832 186.977C436.811 186.103 438.302 184.785 438.823 184.462C439.269 184.164 439.773 183.965 440.302 183.878C440.697 183.84 441.093 183.923 441.438 184.118C441.44 184.135 441.438 184.152 441.433 184.169C441.428 184.185 441.419 184.2 441.407 184.213L441.224 184.387L441.194 184.415C440.787 184.821 440.558 185.371 440.557 185.945C440.556 186.52 440.783 187.071 441.188 187.478L441.199 187.488L444.646 190.9C444.848 191.102 445.088 191.261 445.352 191.369C445.616 191.477 445.899 191.531 446.184 191.529C446.756 191.53 447.306 191.306 447.715 190.905L453.299 185.389C453.319 185.37 453.338 185.35 453.356 185.33C453.73 184.919 453.936 184.382 453.931 183.826C453.925 183.271 453.71 182.737 453.328 182.334Z" fill="white"/>
</g>
<g id="Item1">
<path id="Vector_17" d="M50.7532 239.728C78.7834 239.728 101.506 217.005 101.506 188.975C101.506 160.944 78.7834 138.221 50.7532 138.221C22.723 138.221 0 160.944 0 188.975C0 217.005 22.723 239.728 50.7532 239.728Z" fill="#D17046"/>
<path id="Vector_18" d="M58.8115 185.953C58.413 185.953 58.0235 185.835 57.6923 185.613C57.361 185.392 57.1028 185.077 56.9503 184.709C56.7978 184.341 56.7579 183.936 56.8357 183.545C56.9134 183.154 57.1052 182.795 57.387 182.514L62.0061 177.895L57.387 173.275C57.0092 172.898 56.797 172.385 56.797 171.851C56.797 171.317 57.0092 170.804 57.387 170.426C57.7648 170.049 58.2772 169.836 58.8115 169.836C59.3457 169.836 59.8582 170.049 60.236 170.426L66.2797 176.47C66.4667 176.657 66.6152 176.879 66.7164 177.124C66.8177 177.368 66.8697 177.63 66.8697 177.895C66.8697 178.159 66.8177 178.421 66.7164 178.665C66.6152 178.91 66.4667 179.132 66.2797 179.319L60.236 185.363C60.0491 185.55 59.8271 185.699 59.5826 185.8C59.3381 185.901 59.0761 185.953 58.8115 185.953Z" fill="white"/>
<path id="Vector_19" d="M26.5784 191.996C26.3138 191.996 26.0518 191.944 25.8074 191.843C25.563 191.742 25.3409 191.594 25.1538 191.406C24.9668 191.219 24.8184 190.997 24.7171 190.753C24.6159 190.508 24.5638 190.246 24.5638 189.982V187.967C24.5796 184.767 25.8573 181.703 28.1195 179.44C30.3816 177.177 33.4454 175.897 36.6452 175.88H62.8406C63.3749 175.88 63.8873 176.092 64.2651 176.47C64.6429 176.848 64.8552 177.36 64.8552 177.894C64.8552 178.429 64.6429 178.941 64.2651 179.319C63.8873 179.697 63.3749 179.909 62.8406 179.909H36.6512C34.5169 179.922 32.4737 180.776 30.965 182.285C29.4564 183.795 28.604 185.839 28.5929 187.973V189.982C28.5929 190.246 28.5408 190.508 28.4396 190.753C28.3384 190.997 28.19 191.219 28.0029 191.406C27.8158 191.593 27.5938 191.742 27.3493 191.843C27.1049 191.944 26.8429 191.996 26.5784 191.996V191.996Z" fill="white"/>
<path id="Vector_20" d="M42.6949 208.113C42.4303 208.113 42.1683 208.061 41.9238 207.96C41.6793 207.859 41.4573 207.71 41.2704 207.523L35.2267 201.479C35.0397 201.292 34.8913 201.07 34.79 200.826C34.6887 200.581 34.6366 200.319 34.6366 200.055C34.6366 199.79 34.6887 199.528 34.79 199.284C34.8913 199.039 35.0397 198.817 35.2267 198.63L41.2704 192.587C41.6484 192.209 42.1606 191.998 42.6945 191.998C43.2285 191.998 43.7405 192.21 44.1181 192.588C44.4957 192.965 44.7079 193.477 44.7081 194.011C44.7084 194.545 44.4966 195.058 44.1194 195.435L39.5003 200.055L44.1194 204.674C44.4011 204.956 44.593 205.315 44.6707 205.705C44.7485 206.096 44.7086 206.501 44.5561 206.869C44.4036 207.237 44.1454 207.552 43.8141 207.773C43.4829 207.995 43.0934 208.113 42.6949 208.113Z" fill="white"/>
<path id="Vector_21" d="M38.6658 202.069C38.1315 202.069 37.6191 201.857 37.2413 201.479C36.8635 201.101 36.6512 200.589 36.6512 200.055C36.6512 199.52 36.8635 199.008 37.2413 198.63C37.6191 198.252 38.1315 198.04 38.6658 198.04H64.8551C66.9895 198.027 69.0327 197.174 70.5413 195.664C72.05 194.154 72.9023 192.11 72.9134 189.976V187.967C72.9134 187.433 73.1256 186.921 73.5034 186.543C73.8812 186.165 74.3937 185.953 74.928 185.953C75.4623 185.953 75.9747 186.165 76.3525 186.543C76.7303 186.921 76.9425 187.433 76.9425 187.967V189.982C76.9267 193.182 75.649 196.246 73.3869 198.509C71.1248 200.773 68.061 202.052 64.8611 202.069L38.6658 202.069Z" fill="white"/>
</g>
</g>
</svg>
