<svg width="876" height="490" viewBox="0 0 876 490" fill="none" xmlns="http://www.w3.org/2000/svg">
<g id="smallTown">
<g id="frame">
<path id="Vector" d="M875.945 489.688H0V85.4923H875.945V489.688ZM3.37767 486.31H872.568V88.87H3.37767V486.31Z" fill="#3F3D56"/>
</g>
<g id="smoke">
<path id="Vector_2" d="M797.233 270.158C797.23 270.252 797.225 270.346 797.225 270.441C798.436 274.098 799.978 277.637 801.833 281.013C800.926 283.739 800.472 286.595 800.487 289.467C800.487 299.374 805.598 307.406 811.902 307.406C818.207 307.406 823.318 299.374 823.318 289.467C823.322 287.321 823.073 285.182 822.574 283.095C824.531 280.977 825.731 278.269 825.985 275.396C826.239 272.523 825.533 269.646 823.978 267.218C825.278 268.354 826.792 269.221 828.431 269.768C830.069 270.315 831.8 270.531 833.523 270.404C835.246 270.276 836.926 269.808 838.466 269.026C840.006 268.244 841.376 267.164 842.495 265.848C843.615 264.532 844.462 263.007 844.987 261.362C845.513 259.716 845.706 257.982 845.556 256.262C845.406 254.541 844.915 252.867 844.113 251.337C843.311 249.807 842.213 248.452 840.882 247.35C843.119 246.524 845.087 245.101 846.572 243.236C848.057 241.371 849.003 239.134 849.306 236.769C849.61 234.404 849.259 232.001 848.293 229.821C847.327 227.642 845.782 225.768 843.825 224.405C841.869 223.042 839.577 222.24 837.197 222.088C834.818 221.936 832.442 222.439 830.328 223.542C828.215 224.646 826.444 226.307 825.208 228.346C823.972 230.385 823.318 232.724 823.318 235.108C823.318 235.299 823.324 235.489 823.332 235.677C821.541 235.13 819.653 234.975 817.796 235.222C815.939 235.469 814.158 236.113 812.572 237.11C810.986 238.106 809.633 239.432 808.605 240.998C807.577 242.564 806.898 244.333 806.615 246.184C804.988 245.216 803.169 244.614 801.286 244.419C799.403 244.224 797.5 244.441 795.709 245.056C793.919 245.67 792.283 246.667 790.916 247.977C789.55 249.287 788.484 250.878 787.794 252.641C787.104 254.404 786.806 256.296 786.921 258.186C787.036 260.076 787.56 261.918 788.458 263.584C789.356 265.251 790.606 266.702 792.121 267.837C793.637 268.972 795.381 269.764 797.233 270.158H797.233Z" fill="#E2E2E2"/>
<path id="Vector_3" d="M623.82 180.849C623.818 180.958 623.812 181.065 623.812 181.174C623.81 183.173 624.21 185.152 624.989 186.992C625.767 188.833 626.908 190.499 628.343 191.889C628.568 192.368 628.817 192.833 629.091 193.285C628.052 196.408 627.531 199.679 627.548 202.97C627.548 214.319 633.403 223.52 640.626 223.52C647.848 223.52 653.703 214.319 653.703 202.97C653.708 200.511 653.422 198.061 652.851 195.67C655.093 193.243 656.468 190.141 656.759 186.85C657.05 183.559 656.241 180.264 654.459 177.481C655.949 178.783 657.683 179.776 659.56 180.403C661.437 181.03 663.42 181.277 665.394 181.131C667.367 180.985 669.292 180.449 671.057 179.553C672.821 178.657 674.39 177.419 675.673 175.912C676.955 174.405 677.926 172.658 678.527 170.773C679.129 168.888 679.35 166.902 679.178 164.93C679.007 162.959 678.445 161.041 677.526 159.288C676.607 157.536 675.349 155.983 673.825 154.721C676.387 153.775 678.642 152.145 680.343 150.008C682.044 147.871 683.128 145.309 683.475 142.6C683.823 139.891 683.421 137.138 682.314 134.641C681.207 132.144 679.437 129.998 677.196 128.436C674.955 126.874 672.329 125.956 669.603 125.782C666.877 125.608 664.156 126.184 661.734 127.447C659.313 128.711 657.284 130.614 655.868 132.95C654.452 135.286 653.703 137.965 653.703 140.697C653.703 140.916 653.71 141.133 653.719 141.349C651.667 140.722 649.504 140.545 647.377 140.828C645.25 141.111 643.209 141.848 641.393 142.99C639.576 144.132 638.026 145.651 636.849 147.445C635.671 149.238 634.893 151.264 634.568 153.385C632.704 152.276 630.621 151.586 628.464 151.363C626.307 151.14 624.127 151.389 622.075 152.093C620.024 152.797 618.15 153.938 616.585 155.439C615.019 156.94 613.798 158.763 613.008 160.783C612.218 162.802 611.876 164.97 612.008 167.135C612.139 169.299 612.74 171.41 613.769 173.319C614.797 175.228 616.229 176.891 617.965 178.191C619.701 179.491 621.699 180.398 623.82 180.849V180.849Z" fill="#E2E2E2"/>
<path id="Vector_4" d="M400.223 88.8751C400.22 89.0024 400.213 89.1288 400.213 89.2568C400.211 91.6028 400.68 93.9252 401.594 96.0859C402.508 98.2466 403.847 100.201 405.532 101.834C405.795 102.395 406.088 102.942 406.409 103.472C405.19 107.137 404.578 110.977 404.599 114.84C404.599 128.161 411.471 138.961 419.948 138.961C428.426 138.961 435.298 128.161 435.298 114.84C435.305 111.954 434.969 109.078 434.298 106.271C436.93 103.423 438.543 99.7819 438.885 95.9186C439.226 92.0554 438.277 88.1879 436.185 84.9219C437.935 86.4498 439.97 87.6151 442.173 88.3501C444.376 89.0852 446.703 89.3754 449.02 89.2038C451.336 89.0323 453.595 88.4025 455.666 87.3509C457.737 86.2994 459.578 84.847 461.083 83.0781C462.588 81.3092 463.727 79.259 464.433 77.0465C465.14 74.834 465.4 72.5032 465.198 70.1894C464.997 67.8757 464.337 65.6249 463.259 63.5679C462.181 61.5109 460.705 59.6885 458.916 58.2065C461.924 57.0965 464.57 55.1835 466.567 52.6753C468.564 50.1671 469.836 47.1596 470.244 43.9795C470.652 40.7995 470.18 37.5684 468.881 34.6373C467.582 31.7063 465.504 29.1874 462.874 27.3541C460.243 25.5209 457.161 24.4435 453.961 24.239C450.762 24.0345 447.567 24.7107 444.725 26.1941C441.883 27.6775 439.501 29.9114 437.839 32.6532C436.177 35.3949 435.298 38.5397 435.298 41.7458C435.298 42.0026 435.307 42.2575 435.317 42.5116C432.909 41.7758 430.37 41.567 427.873 41.8992C425.377 42.2315 422.981 43.0971 420.849 44.4372C418.716 45.7774 416.897 47.5607 415.515 49.6661C414.133 51.7714 413.22 54.1496 412.838 56.6391C410.651 55.3374 408.206 54.5275 405.674 54.2655C403.142 54.0035 400.583 54.2957 398.175 55.1219C395.767 55.948 393.568 57.2883 391.73 59.0497C389.892 60.8111 388.459 62.9514 387.532 65.3219C386.604 67.6925 386.203 70.2366 386.358 72.7776C386.512 75.3186 387.217 77.7955 388.425 80.0366C389.632 82.2776 391.313 84.229 393.35 85.7553C395.388 87.2815 397.733 88.3461 400.223 88.8751V88.8751Z" fill="#E2E2E2"/>
</g>
<g id="chimneys">
<path id="Vector_5" d="M823.161 294.797H801.428V370.027H823.161V294.797Z" fill="#3F3D56"/>
<path id="Vector_7" d="M650.131 212.043H628.398V287.274H650.131V212.043Z" fill="#3F3D56"/>
<path id="Vector_6" d="M430.29 130.125H408.557V205.356H430.29V130.125Z" fill="#3F3D56"/>
</g>
<g id="houseSmall">
<path id="Vector_8" d="M837.973 358.996L783.874 293.961H678.551L614.187 356.653L615.488 357.489H615.023V487.888H837.371V357.489L837.973 358.996Z" fill="#3F3D56"/>
<path id="Vector_9" d="M784.71 293.125L718.674 370.545V487.888H837.371V355.817L784.71 293.125Z" fill="#F5A500"/>
<path id="Vector_10" d="M790.561 422.996H766.32V444.422H790.561V422.996Z" fill="white"/>
<path id="Vector_11" d="M790.561 385.909H766.32V406.996H790.561V385.909Z" fill="white"/>
</g>
<g id="birds">
<path id="Vector_12" d="M371.353 10.4931L384.292 0.14495C374.241 -0.96396 370.111 4.51772 368.421 8.85653C360.568 5.59592 352.02 9.86912 352.02 9.86912L377.907 19.267C376.601 15.7788 374.328 12.7352 371.353 10.4931Z" fill="#3F3D56"/>
<path id="Vector_13" d="M603.511 38.0397L616.449 27.6916C606.398 26.5826 602.268 32.0643 600.578 36.4031C592.726 33.1425 584.177 37.4157 584.177 37.4157L610.064 46.8137C608.758 43.3254 606.485 40.2818 603.511 38.0397V38.0397Z" fill="#3F3D56"/>
<path id="Vector_14" d="M548.023 116.866L560.962 106.518C550.91 105.409 546.781 110.891 545.09 115.23C537.238 111.969 528.69 116.242 528.69 116.242L554.577 125.64C553.271 122.152 550.998 119.108 548.023 116.866V116.866Z" fill="#3F3D56"/>
</g>
<g id="treeBig">
<path id="Vector_15" d="M85.073 164.137L60.555 198.059L58.184 130.781L55.251 230.115L32.657 198.854L55.049 236.98L47.633 488.161H70.777L60.815 205.441L85.073 164.137Z" fill="#3F3D56"/>
</g>
<g id="moon">
<path id="Vector_16" d="M768.185 9.30313C763.655 9.30672 759.135 9.73677 754.685 10.5876C771.105 13.7267 785.917 22.4924 796.57 35.3754C807.224 48.2584 813.052 64.4526 813.052 81.1698C813.052 97.887 807.224 114.081 796.57 126.964C785.917 139.847 771.105 148.613 754.685 151.752C764.516 153.633 774.632 153.439 784.383 151.183C794.135 148.927 803.308 144.659 811.315 138.653C819.321 132.646 825.985 125.033 830.878 116.301C835.772 107.57 838.787 97.9124 839.731 87.9478C840.676 77.9832 839.528 67.9312 836.362 58.4359C833.196 48.9405 828.081 40.2113 821.346 32.8074C814.61 25.4036 806.402 19.4884 797.248 15.4409C788.093 11.3934 778.195 9.30281 768.185 9.30313V9.30313Z" fill="#E2E2E2"/>
</g>
<g id="houseMedium">
<path id="Vector_17" d="M682.973 307.996L608.788 219.885H463.235L374.286 306.524L376.082 307.679H375.441V487.888H682.72V307.679L682.973 307.996Z" fill="#3F3D56"/>
<path id="Vector_18" d="M609.943 218.73L518.684 325.722V487.888H682.72V305.369L609.943 218.73Z" fill="#F5A500"/>
<path id="Vector_19" d="M594.907 395.387H561.406V427.819H594.907V395.387Z" fill="white"/>
<path id="Vector_20" d="M594.907 346.956H561.406V379.387H594.907V346.956Z" fill="white"/>
<path id="Vector_21" d="M643.907 395.387H610.406V427.819H643.907V395.387Z" fill="white"/>
<path id="Vector_22" d="M643.907 346.956H610.406V379.387H643.907V346.956Z" fill="white"/>
</g>
<g id="houseBig">
<path id="Vector_23" d="M487.973 254.996L392.098 140.816H203.602L88.41 253.016L90.737 254.512H89.905V487.888H487.842V254.512L487.973 254.996Z" fill="#3F3D56"/>
<path id="Vector_24" d="M393.594 139.32L275.41 277.878V487.888H487.842V251.52L393.594 139.32Z" fill="#F5A500"/>
<path id="Vector_25" d="M346.105 305.376H302.721V349.736H346.105V305.376Z" fill="white"/>
<path id="Vector_26" d="M346.105 365.736H302.721V410.096H346.105V365.736Z" fill="white"/>
<path id="Vector_27" d="M406.105 305.376H362.721V349.736H406.105V305.376Z" fill="white"/>
<path id="Vector_28" d="M406.105 365.736H362.721V410.096H406.105V365.736Z" fill="white"/>
<path id="Vector_29" d="M466.105 305.376H422.721V349.736H466.105V305.376Z" fill="white"/>
<path id="Vector_30" d="M466.105 365.736H422.721V410.096H466.105V365.736Z" fill="white"/>
</g>
<g id="treeSmall">
<path id="Vector_31" d="M169.073 240.854L150.36 266.745L148.55 215.396L146.312 291.211L129.067 267.351L146.157 296.451L140.497 488.161H158.162L150.558 272.379L169.073 240.854Z" fill="#E2E2E2"/>
</g>
<g id="flowers">
<path id="Vector_32" d="M179.778 484.065C179.778 484.065 180.298 473.176 190.951 474.442Z" fill="#E6E6E6"/>
<path id="Vector_33" d="M176.768 473.703C179.713 473.703 182.1 471.315 182.1 468.371C182.1 465.426 179.713 463.039 176.768 463.039C173.824 463.039 171.436 465.426 171.436 468.371C171.436 471.315 173.824 473.703 176.768 473.703Z" fill="#F5A500"/>
<path id="Vector_34" d="M177.406 477.349H175.901V487.885H177.406V477.349Z" fill="#E6E6E6"/>
<path id="Vector_35" d="M227.424 484.065C227.424 484.065 227.944 473.176 238.597 474.442Z" fill="#E6E6E6"/>
<path id="Vector_36" d="M224.414 473.703C227.359 473.703 229.746 471.315 229.746 468.371C229.746 465.426 227.359 463.039 224.414 463.039C221.47 463.039 219.082 465.426 219.082 468.371C219.082 471.315 221.47 473.703 224.414 473.703Z" fill="#F5A500"/>
<path id="Vector_37" d="M225.052 477.349H223.547V487.885H225.052V477.349Z" fill="#E6E6E6"/>
<path id="Vector_38" d="M500.762 484.065C500.762 484.065 501.282 473.176 511.935 474.442Z" fill="#E6E6E6"/>
<path id="Vector_39" d="M497.752 473.703C500.697 473.703 503.084 471.315 503.084 468.371C503.084 465.426 500.697 463.039 497.752 463.039C494.807 463.039 492.42 465.426 492.42 468.371C492.42 471.315 494.807 473.703 497.752 473.703Z" fill="#F5A500"/>
<path id="Vector_40" d="M498.389 477.349H496.884V487.885H498.389V477.349Z" fill="#E6E6E6"/>
<path id="Vector_41" d="M702.213 484.065C702.213 484.065 702.732 473.176 713.386 474.442Z" fill="#E6E6E6"/>
<path id="Vector_42" d="M699.203 473.703C702.147 473.703 704.534 471.315 704.534 468.371C704.534 465.426 702.147 463.039 699.203 463.039C696.258 463.039 693.871 465.426 693.871 468.371C693.871 471.315 696.258 473.703 699.203 473.703Z" fill="#F5A500"/>
<path id="Vector_43" d="M699.84 477.349H698.335V487.885H699.84V477.349Z" fill="#E6E6E6"/>
<path id="Vector_44" d="M114.579 484.065C114.579 484.065 115.098 473.176 125.751 474.442Z" fill="#E6E6E6"/>
<path id="Vector_45" d="M111.568 473.703C114.513 473.703 116.9 471.315 116.9 468.371C116.9 465.426 114.513 463.039 111.568 463.039C108.624 463.039 106.237 465.426 106.237 468.371C106.237 471.315 108.624 473.703 111.568 473.703Z" fill="#F5A500"/>
<path id="Vector_46" d="M112.206 477.349H110.701V487.885H112.206V477.349Z" fill="#E6E6E6"/>
</g>
</g>
</svg>
